{"scene":0,"scenes":[{"nodes":[0]}],"asset":{"version":"2.0","generator":"https://github.com/mikedh/trimesh"},"accessors":[{"componentType":5125,"type":"SCALAR","bufferView":0,"count":240,"max":[41],"min":[0]},{"componentType":5126,"type":"VEC3","byteOffset":0,"bufferView":1,"count":42,"max":[0.05000000074505806,0.05000000074505806,0.05000000074505806],"min":[-0.05000000074505806,-0.05000000074505806,-0.05000000074505806]},{"componentType":5121,"normalized":true,"type":"VEC4","byteOffset":0,"bufferView":2,"count":42,"max":[0,0,255,255],"min":[0,0,255,255]},{"componentType":5126,"type":"VEC3","byteOffset":0,"bufferView":3,"count":42,"max":[1.0499999523162842,0.05000000074505806,0.05000000074505806],"min":[0.949999988079071,-0.05000000074505806,-0.05000000074505806]},{"componentType":5126,"type":"VEC3","byteOffset":0,"bufferView":4,"count":42,"max":[0.05000000074505806,1.0499999523162842,0.05000000074505806],"min":[-0.05000000074505806,0.949999988079071,-0.05000000074505806]},{"componentType":5125,"type":"SCALAR","bufferView":5,"count":3,"max":[2],"min":[0]},{"componentType":5126,"type":"VEC3","byteOffset":0,"bufferView":6,"count":3,"max":[1.0,1.0,4.555754884449925e-09],"min":[0.0,0.0,-4.555755328539135e-09]},{"componentType":5121,"normalized":true,"type":"VEC4","byteOffset":0,"bufferView":7,"count":3,"max":[0,255,0,128],"min":[0,255,0,128]}],"meshes":[{"name":"geometry_0","extras":{"shape":"sphere","radius":0.05},"primitives":[{"attributes":{"POSITION":1,"COLOR_0":2},"indices":0,"mode":4}]},{"name":"geometry_1","extras":{"shape":"sphere","radius":0.05},"primitives":[{"attributes":{"POSITION":3,"COLOR_0":2},"indices":0,"mode":4}]},{"name":"geometry_2","extras":{"shape":"sphere","radius":0.05},"primitives":[{"attributes":{"POSITION":4,"COLOR_0":2},"indices":0,"mode":4}]},{"name":"geometry_3","extras":{"processed":true},"primitives":[{"attributes":{"POSITION":6,"COLOR_0":7},"indices":5,"mode":4}]}],"nodes":[{"name":"world","children":[1,2,3,4]},{"name":"point_0","mesh":0},{"name":"point_1","mesh":1},{"name":"point_2","mesh":2},{"name":"surface_0","mesh":3}],"buffers":[{"uri":"gltf_buffer_0.bin","byteLength":960},{"uri":"gltf_buffer_1.bin","byteLength":504},{"uri":"gltf_buffer_2.bin","byteLength":168},{"uri":"gltf_buffer_3.bin","byteLength":504},{"uri":"gltf_buffer_4.bin","byteLength":504},{"uri":"gltf_buffer_5.bin","byteLength":12},{"uri":"gltf_buffer_6.bin","byteLength":36},{"uri":"gltf_buffer_7.bin","byteLength":12}],"bufferViews":[{"buffer":0,"byteOffset":0,"byteLength":960},{"buffer":1,"byteOffset":0,"byteLength":504},{"buffer":2,"byteOffset":0,"byteLength":168},{"buffer":3,"byteOffset":0,"byteLength":504},{"buffer":4,"byteOffset":0,"byteLength":504},{"buffer":5,"byteOffset":0,"byteLength":12},{"buffer":6,"byteOffset":0,"byteLength":36},{"buffer":7,"byteOffset":0,"byteLength":12}]}